<svg xmlns="http://www.w3.org/2000/svg" xmlns:xlink="http://www.w3.org/1999/xlink" width="401" height="328" viewBox="0 0 401 328"><defs><clipPath id="a"><rect width="401" height="328" transform="translate(949 117)" fill="#fff" stroke="#707070" stroke-width="1"/></clipPath></defs><g transform="translate(-949 -117)" clip-path="url(#a)"><path d="M5.125,232.009a4.542,4.542,0,0,1,.123-1.076,33.163,33.163,0,0,1-2.336-3.906A26.739,26.739,0,0,1,.144,212.079a40.745,40.745,0,0,1,.554-6.09,48.422,48.422,0,0,1,5.534-12.734c6.324-10.7,16.159-20.4,24.349-30.45,17.484-21.413,28.863-48.363,12.728-70.311C38.68,86.19,32.139,80.82,28.367,74.225A30.185,30.185,0,0,1,24.494,62.6a49.052,49.052,0,0,1-.553-6.09A74.281,74.281,0,0,1,25.6,43.775c2.628-13.461,7.526-28.144,22.689-36.539C58.639,1.5,71.991-.3,85.367.039c1.877.043,3.656.422,5.534.553,5.128.337,10.572.867,15.495,1.661,30.413,4.86,58.544,14.64,86.882,23.806,21.575,6.976,43.774,13.5,66.96,16.609,1.874.25,3.65.906,5.534,1.107,5.435.6,11.074.945,16.6,1.108,27.51.788,59.76-5.008,78.028-20.485,17.646-14.959,50.689-16.685,74.708-7.751V17.2c1.807.689,3.837,1.42,5.534,2.214,17.7,8.325,29.317,22.174,30.99,37.093a38.729,38.729,0,0,1,0,6.09c-1.148,18.355-15.761,33.832-30.99,49.273-1.884,1.906-3.668,3.617-5.534,5.536-4.941,5.074-10.236,10.239-14.388,15.5a66.541,66.541,0,0,0-4.981,7.2,51.4,51.4,0,0,0-3.874,7.751,29.777,29.777,0,0,0-1.66,8.3,22.441,22.441,0,0,0,2.213,12.18c4.065,8.062,12.729,13.758,22.689,18.823,1.835.938,3.62,1.866,5.534,2.768,10.8,5.1,22.142,9.758,30.99,16.055a50.314,50.314,0,0,1,6.64,6.09c.83.859,2.033,1.273,2.767,2.215a23.8,23.8,0,0,1,4.981,14.394c0,.132,0,.845,0,1.108a24.2,24.2,0,0,1-1.714,7.98c-2.722,20.5-108.256,90.012-240.117,90.012C110.591,327.787,5.125,251.451,5.125,232.009ZM471.632,62.6c0-.01,0-.005,0,0a.015.015,0,0,1,0,.005S471.632,62.6,471.632,62.6Z" transform="translate(948.956 116.988)" fill="rgba(110,110,255,0.1)"/></g></svg>