<svg xmlns="http://www.w3.org/2000/svg" xmlns:xlink="http://www.w3.org/1999/xlink" width="32" height="32" viewBox="0 0 32 32"><defs><clipPath id="a"><rect width="32" height="32" fill="none"/></clipPath></defs><g transform="translate(-10)"><g transform="translate(10)" clip-path="url(#a)"><line x1="9.562" y2="20.145" transform="translate(8.191 5.262)" fill="#424242"/><path d="M170.951,91.231l-.257.54-.7,1.466-1.032,2.173-1.255,2.643-1.374,2.895-1.387,2.922-1.293,2.725-1.093,2.3-.79,1.662-.372.784-.016.034a1.114,1.114,0,0,0-.177.556,1.341,1.341,0,0,0,.295,1.105,1.125,1.125,0,0,0,.42.385,1.508,1.508,0,0,0,1.153.151,1.472,1.472,0,0,0,.894-.687l.257-.54.7-1.465,1.033-2.173,1.255-2.643,1.374-2.895,1.387-2.922,1.293-2.724,1.094-2.3.79-1.662.374-.784.016-.034a1.113,1.113,0,0,0,.177-.556A1.536,1.536,0,0,0,173,90.692a1.511,1.511,0,0,0-1.153-.151,1.472,1.472,0,0,0-.894.688Z" transform="translate(-154.489 -86.724)" fill="#2c2c33"/><path d="M96.8,86.788l1.265.72,3.036,1.729,3.65,2.078,3.17,1.8c.51.291,1.018.587,1.531.873l.022.012-.741-1.292.065.891.156,2.119.19,2.577.163,2.22c.027.361.047.722.08,1.08v.016l.438-1.058-.724.582-1.738,1.4-2.093,1.682-1.81,1.455c-.3.237-.593.471-.886.712l-.013.01,1.813-.234-1.24-.661-2.956-1.575-3.574-1.9-3.1-1.655c-.5-.266-1-.536-1.5-.8l-.021-.011a1.572,1.572,0,0,0-1.153-.151,1.524,1.524,0,0,0-.894.687,1.5,1.5,0,0,0,.536,2.047l1.24.66,2.956,1.575,3.574,1.9,3.1,1.66c.5.266,1,.54,1.5.8l.021.011.357.151a1.134,1.134,0,0,0,.6.027.744.744,0,0,0,.377-.1,1.122,1.122,0,0,0,.482-.309l.575-.462,1.426-1.146,1.829-1.469,1.781-1.431,1.281-1.03.319-.256.054-.042h0l.117-.152a1.122,1.122,0,0,0,.268-.509c.007-.029.054-.371.053-.4V101.6c-.018-.335-.049-.67-.074-1l-.148-2-.175-2.376-.156-2.127-.092-1.254c0-.034,0-.069-.008-.1v-.014l-.056-.4-.151-.357-.234-.3-.3-.234h0c-.048-.029-.1-.056-.147-.083l-.873-.5L108.486,90l-1.874-1.067-2.068-1.177-2.056-1.173-1.843-1.049-1.425-.811-.8-.457-.1-.059a1.558,1.558,0,0,0-1.153-.151,1.527,1.527,0,0,0-.894.688,1.51,1.51,0,0,0-.15,1.153,1.548,1.548,0,0,0,.687.894Z" transform="translate(-86.003 -80.512)" fill="#2c2c33"/></g></g></svg>